<?xml version="1.0" encoding="iso-8859-1"?>
<!-- Generator: Adobe Illustrator 19.0.0, SVG Export Plug-In . SVG Version: 6.00 Build 0)  -->
<svg version="1.1" id="Layer_1" xmlns="http://www.w3.org/2000/svg" xmlns:xlink="http://www.w3.org/1999/xlink" x="0px" y="0px"
	 viewBox="0 0 511.998 511.998" style="enable-background:new 0 0 511.998 511.998;" xml:space="preserve">
<circle style="fill: #e7b00b;" cx="255.998" cy="255.998" r="255.998"/>
<path style="fill: #d57f00;" d="M255.999,511.998c0-86.786,0-424.057,0-511.997c68.379,0,132.666,26.628,181.018,74.981l0,0l0,0
	c48.351,48.351,74.981,112.638,74.981,181.018s-26.628,132.666-74.981,181.018C388.667,485.37,324.379,511.998,255.999,511.998z"/>
<g>
	<path style="fill:#fffe3b;" d="M303.19,264.631c0-12.295-9.966-22.261-22.261-22.261H0.364c-0.237,4.514-0.362,9.058-0.362,13.631
		c0,10.457,0.642,20.763,1.861,30.89H280.93C293.224,286.892,303.19,276.926,303.19,264.631z"/>
	<path style="fill:#fffe3b;" d="M227.675,402.951H46.368c11.482,16.349,24.83,31.29,39.731,44.521h141.575
		c12.295,0,22.261-9.966,22.261-22.261S239.968,402.951,227.675,402.951z"/>
	<path style="fill:#fffe3b;" d="M198.088,112.339c12.295,0,22.261-9.966,22.261-22.261s-9.966-22.261-22.261-22.261H82.46
		C68.04,81.123,55.148,96.056,44.088,112.339H198.088z"/>
</g>
<g>
	<path style="fill:#fffe3b;" d="M344.047,199.616h161.706c-3.465-15.413-8.318-30.299-14.425-44.521H344.047
		c-12.295,0-22.261,9.966-22.261,22.261C321.787,189.65,331.753,199.616,344.047,199.616z"/>
	<path style="fill:#fffe3b;" d="M501.227,329.647H365.744c-12.295,0-22.261,9.966-22.261,22.261s9.966,22.261,22.261,22.261h117.392
		C490.496,360.049,496.574,345.158,501.227,329.647z"/>
	<path style="fill:#fffe3b;" d="M280.929,242.37h-24.93v44.521h24.93c12.295,0,22.261-9.966,22.261-22.261
		C303.19,252.336,293.224,242.37,280.929,242.37z"/>
</g>
<g>
</g>
<g>
</g>
<g>
</g>
<g>
</g>
<g>
</g>
<g>
</g>
<g>
</g>
<g>
</g>
<g>
</g>
<g>
</g>
<g>
</g>
<g>
</g>
<g>
</g>
<g>
</g>
<g>
</g>
</svg>
