<?xml version="1.0" encoding="iso-8859-1"?>
<!-- Generator: Adobe Illustrator 19.0.0, SVG Export Plug-In . SVG Version: 6.00 Build 0)  -->
<svg version="1.1" id="Layer_1" xmlns="http://www.w3.org/2000/svg" xmlns:xlink="http://www.w3.org/1999/xlink" x="0px" y="0px"
	 viewBox="0 0 511.998 511.998" style="enable-background:new 0 0 511.998 511.998;" xml:space="preserve">
<circle style="fill:#F74D37;" cx="255.998" cy="255.998" r="255.998"/>
<path style="fill:#C43D2C;" d="M255.999,511.998c0-86.786,0-424.057,0-511.997c68.379,0,132.666,26.628,181.018,74.981l0,0l0,0
	c48.351,48.351,74.981,112.638,74.981,181.018s-26.628,132.666-74.981,181.018C388.667,485.37,324.379,511.998,255.999,511.998z"/>
<g>
	<path style="fill:#952F22;" d="M195.225,194.126h309.227c-3.833-15.441-9.061-30.33-15.555-44.521H195.225
		c-12.295,0-22.261,9.966-22.261,22.261S182.931,194.126,195.225,194.126z"/>
	<path style="fill:#952F22;" d="M279.365,402.047c-12.295,0-22.261,9.966-22.261,22.261s9.966,22.261,22.261,22.261h147.553
		c14.764-13.251,27.976-28.193,39.339-44.521H279.365z"/>
	<path style="fill:#952F22;" d="M205.124,317.899c-12.295,0-22.261,9.966-22.261,22.261s9.966,22.261,22.261,22.261h283.762
		c6.496-14.191,11.726-29.08,15.56-44.521H205.124z"/>
	<path style="fill:#952F22;" d="M289.265,109.979h177.01c-11.36-16.327-24.567-31.27-39.328-44.521H289.265
		c-12.295,0-22.261,9.966-22.261,22.261S276.97,109.979,289.265,109.979z"/>
	<path style="fill:#952F22;" d="M267.004,256.013c0,12.295,9.966,22.261,22.261,22.261h221.758
		c0.633-7.342,0.975-14.767,0.975-22.272c0-7.497-0.342-14.915-0.973-22.25h-221.76C276.97,233.752,267.004,243.718,267.004,256.013
		z"/>
</g>
<g>
	<path style="fill:#B03727;" d="M195.225,149.604c-12.295,0-22.261,9.966-22.261,22.261s9.966,22.261,22.261,22.261h60.775v-44.521
		H195.225z"/>
	<path style="fill:#B03727;" d="M205.124,317.899c-12.295,0-22.261,9.966-22.261,22.261s9.966,22.261,22.261,22.261h50.876v-44.521
		H205.124z"/>
</g>
<g>
</g>
<g>
</g>
<g>
</g>
<g>
</g>
<g>
</g>
<g>
</g>
<g>
</g>
<g>
</g>
<g>
</g>
<g>
</g>
<g>
</g>
<g>
</g>
<g>
</g>
<g>
</g>
<g>
</g>
</svg>
