<?xml version="1.0" encoding="iso-8859-1"?>
<!-- Generator: Adobe Illustrator 19.0.0, SVG Export Plug-In . SVG Version: 6.00 Build 0)  -->
<svg version="1.1" id="Layer_1" xmlns="http://www.w3.org/2000/svg" xmlns:xlink="http://www.w3.org/1999/xlink" x="0px" y="0px"
	 viewBox="0 0 512 512" style="enable-background:new 0 0 512 512;" xml:space="preserve">
<path style="fill:#D8D9DD;" d="M256,0C114.844,0,0.004,114.842,0.004,256S114.844,512,256,512s255.996-114.842,255.996-256
	S397.156,0,256,0z"/>
<g>
	<path style="fill:#B7B9C0;" d="M256,512c141.156,0,255.996-114.842,255.996-256S397.156,0,256,0V512z"/>
	<path style="fill:#B7B9C0;" d="M339.836,30.158c-6.423-8.099-12.855-15.359-19.108-21.86C300.045,2.888,278.354,0,256,0
		s-44.045,2.888-64.728,8.298c-6.252,6.5-12.683,13.762-19.108,21.86C140.85,69.635,103.887,136.822,99.63,236.8H0.723
		c-0.472,6.34-0.718,12.742-0.718,19.2s0.246,12.86,0.718,19.2H99.63c4.257,99.981,41.22,167.168,72.535,206.645
		c6.422,8.096,12.852,15.357,19.104,21.856C211.952,509.111,233.645,512,256,512s44.048-2.889,64.731-8.299
		c6.251-6.499,12.681-13.759,19.104-21.856c31.314-39.477,68.277-106.664,72.535-206.645h98.906c0.472-6.34,0.718-12.742,0.718-19.2
		c0-6.458-0.246-12.86-0.718-19.2H412.37C408.113,136.822,371.151,69.635,339.836,30.158z M236.8,493.923
		c-10.657-9.108-23.237-21.459-35.738-37.448c-38.655-49.444-59.8-110.357-63.006-181.275H236.8V493.923z M236.8,236.8h-98.744
		c3.206-70.915,24.351-131.828,63.006-181.272c12.502-15.991,25.084-28.344,35.738-37.451V236.8z M275.2,18.066
		c35.63,30.547,93.142,98.1,98.733,218.734H275.2V18.066z M310.938,456.475c-12.501,15.989-25.08,28.34-35.738,37.448V275.2h98.744
		C370.738,346.119,349.592,407.032,310.938,456.475z"/>
</g>
<path style="fill:#9B9DA6;" d="M256,512c22.355,0,44.048-2.889,64.731-8.299c6.251-6.499,12.681-13.759,19.104-21.856
	c31.314-39.477,68.277-106.664,72.535-206.645h98.906c0.472-6.34,0.718-12.742,0.718-19.2c0-6.458-0.246-12.86-0.718-19.2H412.37
	c-4.257-99.978-41.22-167.165-72.535-206.642c-6.423-8.099-12.855-15.359-19.108-21.86C300.045,2.888,278.354,0,256,0V512z
	 M275.2,18.066c35.63,30.547,93.142,98.1,98.733,218.734H275.2V18.066z M310.938,456.475c-12.501,15.989-25.08,28.34-35.738,37.448
	V275.2h98.744C370.738,346.119,349.592,407.032,310.938,456.475z"/>
<g>
</g>
<g>
</g>
<g>
</g>
<g>
</g>
<g>
</g>
<g>
</g>
<g>
</g>
<g>
</g>
<g>
</g>
<g>
</g>
<g>
</g>
<g>
</g>
<g>
</g>
<g>
</g>
<g>
</g>
</svg>
