<?xml version="1.0" encoding="iso-8859-1"?>
<!-- Generator: Adobe Illustrator 19.0.0, SVG Export Plug-In . SVG Version: 6.00 Build 0)  -->
<svg version="1.1" id="Layer_1" xmlns="http://www.w3.org/2000/svg" xmlns:xlink="http://www.w3.org/1999/xlink" x="0px" y="0px"
	 viewBox="0 0 512 512" style="enable-background:new 0 0 512 512;" xml:space="preserve">
<g>
	<rect x="238.136" y="14.497" style="fill:#FFAC12;" width="35.718" height="93.874"/>
	
		<rect x="40.561" y="140.86" transform="matrix(-0.866 -0.5 0.5 -0.866 83.9101 339.9203)" style="fill:#FFAC12;" width="93.872" height="35.717"/>
	
		<rect x="69.648" y="306.35" transform="matrix(-0.5 -0.866 0.866 -0.5 -174.6919 605.7155)" style="fill:#FFAC12;" width="35.717" height="93.872"/>
	<rect x="238.136" y="403.629" style="fill:#FFAC12;" width="35.718" height="93.874"/>
</g>
<g>
	
		<rect x="377.548" y="335.419" transform="matrix(-0.866 -0.5 0.5 -0.866 615.4531 871.4692)" style="fill:#D89210;" width="93.872" height="35.717"/>
	
		<rect x="406.645" y="111.772" transform="matrix(-0.5 -0.866 0.866 -0.5 499.315 605.6918)" style="fill:#D89210;" width="35.717" height="93.872"/>
</g>
<rect x="144.766" y="88.686" transform="matrix(-0.5 -0.866 0.866 -0.5 162.3096 306.7978)" style="fill:#F9D026;" width="49.904" height="35.717"/>
<g>
	
		<rect x="356.305" y="443.842" transform="matrix(-0.5 -0.866 0.866 -0.5 162.3266 1017.1188)" style="fill:#E7C224;" width="36.941" height="35.717"/>
	<rect x="475.058" y="238.141" style="fill:#E7C224;" width="36.942" height="35.718"/>
	
		<rect x="356.896" y="31.826" transform="matrix(-0.866 -0.5 0.5 -0.866 674.1501 281.2362)" style="fill:#E7C224;" width="35.717" height="36.941"/>
</g>
<g>
	
		<rect x="118.765" y="32.43" transform="matrix(-0.5 -0.866 0.866 -0.5 162.3037 194.2814)" style="fill:#F9D026;" width="36.941" height="35.717"/>
	<rect y="238.141" style="fill:#F9D026;" width="36.942" height="35.718"/>
	
		<rect x="119.375" y="443.229" transform="matrix(-0.866 -0.5 0.5 -0.866 25.2259 930.1587)" style="fill:#F9D026;" width="35.717" height="36.941"/>
	<rect x="58.468" y="238.141" style="fill:#F9D026;" width="49.904" height="35.718"/>
	
		<rect x="151.852" y="380.501" transform="matrix(-0.866 -0.5 0.5 -0.866 113.9514 841.441)" style="fill:#F9D026;" width="35.717" height="49.904"/>
</g>
<g>
	
		<rect x="317.355" y="387.603" transform="matrix(-0.5 -0.866 0.866 -0.5 162.3276 904.6423)" style="fill:#E7C224;" width="49.904" height="35.717"/>
	<rect x="403.623" y="238.141" style="fill:#E7C224;" width="49.904" height="35.718"/>
	
		<rect x="324.422" y="81.588" transform="matrix(-0.866 -0.5 0.5 -0.866 585.4301 369.95)" style="fill:#E7C224;" width="35.717" height="49.904"/>
</g>
<path style="fill:#F9D026;" d="M256,421.492c-91.25,0-165.486-74.237-165.486-165.486S164.75,90.519,256,90.519
	s165.486,74.237,165.486,165.486S347.25,421.492,256,421.492z"/>
<g>
	<rect x="256" y="14.497" style="fill:#D89210;" width="17.864" height="93.874"/>
	<rect x="256" y="403.629" style="fill:#D89210;" width="17.864" height="93.874"/>
</g>
<path style="fill:#E7C224;" d="M256,90.519c91.25,0,165.486,74.237,165.486,165.486S347.25,421.492,256,421.492V90.519z"/>
<g>
</g>
<g>
</g>
<g>
</g>
<g>
</g>
<g>
</g>
<g>
</g>
<g>
</g>
<g>
</g>
<g>
</g>
<g>
</g>
<g>
</g>
<g>
</g>
<g>
</g>
<g>
</g>
<g>
</g>
</svg>
